<svg xmlns="http://www.w3.org/2000/svg" viewBox="0 0 1200 860" font-family="'Segoe UI', Arial, sans-serif">
  <defs>
    <linearGradient id="bgGrad" x1="0%" y1="0%" x2="100%" y2="100%">
      <stop offset="0%" style="stop-color:#0a0f1e"/>
      <stop offset="100%" style="stop-color:#111827"/>
    </linearGradient>
    <linearGradient id="extGrad" x1="0%" y1="0%" x2="0%" y2="100%">
      <stop offset="0%" style="stop-color:#1c2f55"/>
      <stop offset="100%" style="stop-color:#0f1e3a"/>
    </linearGradient>
    <linearGradient id="backGrad" x1="0%" y1="0%" x2="0%" y2="100%">
      <stop offset="0%" style="stop-color:#053d2e"/>
      <stop offset="100%" style="stop-color:#021e18"/>
    </linearGradient>
    <linearGradient id="dataGrad" x1="0%" y1="0%" x2="0%" y2="100%">
      <stop offset="0%" style="stop-color:#7c4d10"/>
      <stop offset="100%" style="stop-color:#3d2005"/>
    </linearGradient>
    <linearGradient id="feGrad" x1="0%" y1="0%" x2="0%" y2="100%">
      <stop offset="0%" style="stop-color:#3b1a78"/>
      <stop offset="100%" style="stop-color:#1e0e44"/>
    </linearGradient>
    <linearGradient id="nodeBlue" x1="0%" y1="0%" x2="100%" y2="100%">
      <stop offset="0%" style="stop-color:#2563eb"/>
      <stop offset="100%" style="stop-color:#1d4ed8"/>
    </linearGradient>
    <linearGradient id="nodeGreen" x1="0%" y1="0%" x2="100%" y2="100%">
      <stop offset="0%" style="stop-color:#059669"/>
      <stop offset="100%" style="stop-color:#047857"/>
    </linearGradient>
    <linearGradient id="nodeAmber" x1="0%" y1="0%" x2="100%" y2="100%">
      <stop offset="0%" style="stop-color:#d97706"/>
      <stop offset="100%" style="stop-color:#b45309"/>
    </linearGradient>
    <linearGradient id="nodePurple" x1="0%" y1="0%" x2="100%" y2="100%">
      <stop offset="0%" style="stop-color:#7c3aed"/>
      <stop offset="100%" style="stop-color:#6d28d9"/>
    </linearGradient>
    <linearGradient id="nodeRed" x1="0%" y1="0%" x2="100%" y2="100%">
      <stop offset="0%" style="stop-color:#dc2626"/>
      <stop offset="100%" style="stop-color:#b91c1c"/>
    </linearGradient>
    <linearGradient id="nodeTeal" x1="0%" y1="0%" x2="100%" y2="100%">
      <stop offset="0%" style="stop-color:#0891b2"/>
      <stop offset="100%" style="stop-color:#0e7490"/>
    </linearGradient>
    <filter id="shadow">
      <feDropShadow dx="0" dy="3" stdDeviation="5" flood-color="#000" flood-opacity="0.4"/>
    </filter>
    <filter id="glow">
      <feGaussianBlur stdDeviation="3" result="blur"/>
      <feComposite in="SourceGraphic" in2="blur" operator="over"/>
    </filter>
    <marker id="arrowBlue" markerWidth="10" markerHeight="7" refX="9" refY="3.5" orient="auto">
      <polygon points="0 0, 10 3.5, 0 7" fill="#60a5fa"/>
    </marker>
    <marker id="arrowGreen" markerWidth="10" markerHeight="7" refX="9" refY="3.5" orient="auto">
      <polygon points="0 0, 10 3.5, 0 7" fill="#34d399"/>
    </marker>
    <marker id="arrowAmber" markerWidth="10" markerHeight="7" refX="9" refY="3.5" orient="auto">
      <polygon points="0 0, 10 3.5, 0 7" fill="#fbbf24"/>
    </marker>
    <marker id="arrowPurple" markerWidth="10" markerHeight="7" refX="9" refY="3.5" orient="auto">
      <polygon points="0 0, 10 3.5, 0 7" fill="#a78bfa"/>
    </marker>
    <marker id="arrowRed" markerWidth="10" markerHeight="7" refX="9" refY="3.5" orient="auto">
      <polygon points="0 0, 10 3.5, 0 7" fill="#f87171"/>
    </marker>
    <marker id="arrowTeal" markerWidth="10" markerHeight="7" refX="9" refY="3.5" orient="auto">
      <polygon points="0 0, 10 3.5, 0 7" fill="#22d3ee"/>
    </marker>
  </defs>

  <!-- Background -->
  <rect width="1200" height="860" fill="url(#bgGrad)" rx="16"/>
  <!-- Subtle grid pattern -->
  <pattern id="grid" width="40" height="40" patternUnits="userSpaceOnUse">
    <path d="M 40 0 L 0 0 0 40" fill="none" stroke="#1e293b" stroke-width="0.5"/>
  </pattern>
  <rect width="1200" height="860" fill="url(#grid)" rx="16" opacity="0.4"/>

  <!-- Title -->
  <text x="600" y="38" text-anchor="middle" fill="#f8fafc" font-size="21" font-weight="700" letter-spacing="0.5">🧠 AI CRM Brain — System Architecture v1.0</text>
  <text x="600" y="58" text-anchor="middle" fill="#64748b" font-size="11">FastAPI · PostgreSQL 16 · Random Forest · Groq LLM (Llama 3.3 70B) · React 18</text>

  <!-- ═══ EXTERNAL SERVICES BOX ═══ -->
  <rect x="30" y="72" width="1140" height="100" rx="10" fill="url(#extGrad)" stroke="#3b82f6" stroke-width="1.5" opacity="0.95" filter="url(#shadow)"/>
  <text x="52" y="94" fill="#93c5fd" font-size="12" font-weight="700">☁️  EXTERNAL INTEGRATIONS</text>

  <!-- Zoho CRM -->
  <rect x="52" y="102" width="185" height="52" rx="8" fill="url(#nodeBlue)" filter="url(#shadow)"/>
  <text x="144" y="123" text-anchor="middle" fill="#fff" font-size="11" font-weight="700">🔗 Zoho CRM API v3</text>
  <text x="144" y="141" text-anchor="middle" fill="#bfdbfe" font-size="9">OAuth 2.0 + Token Refresh</text>

  <!-- Groq / Llama -->
  <rect x="257" y="102" width="210" height="52" rx="8" fill="url(#nodeGreen)" filter="url(#shadow)"/>
  <text x="362" y="123" text-anchor="middle" fill="#fff" font-size="11" font-weight="700">🧠 Groq API (Llama 3.3 70B)</text>
  <text x="362" y="141" text-anchor="middle" fill="#a7f3d0" font-size="9">JSON-mode · AR/EN Recommendations</text>

  <!-- Grok / xAI -->
  <rect x="487" y="102" width="185" height="52" rx="8" fill="url(#nodeTeal)" filter="url(#shadow)"/>
  <text x="579" y="123" text-anchor="middle" fill="#fff" font-size="11" font-weight="700">⚡ Grok API (xAI)</text>
  <text x="579" y="141" text-anchor="middle" fill="#cffafe" font-size="9">WhatsApp Message Generation</text>

  <!-- Google OAuth -->
  <rect x="692" y="102" width="185" height="52" rx="8" fill="url(#nodeAmber)" filter="url(#shadow)"/>
  <text x="784" y="123" text-anchor="middle" fill="#fff" font-size="11" font-weight="700">🔐 Google OAuth 2.0</text>
  <text x="784" y="141" text-anchor="middle" fill="#fef3c7" font-size="9">SSO + JWT token issuance</text>

  <!-- WhatsApp / pywhatkit -->
  <rect x="897" y="102" width="240" height="52" rx="8" fill="url(#nodeRed)" filter="url(#shadow)"/>
  <text x="1017" y="123" text-anchor="middle" fill="#fff" font-size="11" font-weight="700">📱 WhatsApp (pywhatkit / Twilio)</text>
  <text x="1017" y="141" text-anchor="middle" fill="#fecaca" font-size="9">OTP Verification + Deal Alerts</text>

  <!-- ═══ FASTAPI BACKEND BOX ═══ -->
  <rect x="30" y="194" width="790" height="350" rx="10" fill="url(#backGrad)" stroke="#10b981" stroke-width="1.5" opacity="0.98" filter="url(#shadow)"/>
  <text x="52" y="218" fill="#6ee7b7" font-size="12" font-weight="700">⚙️  FASTAPI BACKEND  —  Port 8000  (app.py)</text>

  <!-- COLUMN 1: Ingestion + ML + Rec -->
  <!-- Ingestion Controller -->
  <rect x="52" y="230" width="228" height="56" rx="8" fill="url(#nodeBlue)" filter="url(#shadow)"/>
  <text x="166" y="252" text-anchor="middle" fill="#fff" font-size="11" font-weight="700">📥 Ingestion Controller</text>
  <text x="166" y="268" text-anchor="middle" fill="#bfdbfe" font-size="9">POST /ingest/deals · /ingestion/upload</text>
  <text x="166" y="280" text-anchor="middle" fill="#bfdbfe" font-size="8">Zoho pull → flatten → upsert PostgreSQL</text>

  <!-- ML Controller -->
  <rect x="52" y="302" width="228" height="56" rx="8" fill="url(#nodeGreen)" filter="url(#shadow)"/>
  <text x="166" y="322" text-anchor="middle" fill="#fff" font-size="11" font-weight="700">🤖 ML Controller</text>
  <text x="166" y="338" text-anchor="middle" fill="#a7f3d0" font-size="9">POST /ml/predict + /predict/batch</text>
  <text x="166" y="350" text-anchor="middle" fill="#a7f3d0" font-size="8">inference.py → Random Forest → DB</text>

  <!-- Recommendation Controller -->
  <rect x="52" y="374" width="228" height="56" rx="8" fill="url(#nodePurple)" filter="url(#shadow)"/>
  <text x="166" y="394" text-anchor="middle" fill="#fff" font-size="11" font-weight="700">🧠 Recommendation Controller</text>
  <text x="166" y="410" text-anchor="middle" fill="#c4b5fd" font-size="9">POST /recommendations/generate</text>
  <text x="166" y="422" text-anchor="middle" fill="#c4b5fd" font-size="8">Data Fusion → LLM → Validate → Upsert</text>

  <!-- Follow-up Controller -->
  <rect x="52" y="446" width="228" height="56" rx="8" fill="url(#nodeRed)" filter="url(#shadow)"/>
  <text x="166" y="466" text-anchor="middle" fill="#fff" font-size="11" font-weight="700">📋 Follow-up Controller</text>
  <text x="166" y="482" text-anchor="middle" fill="#fecaca" font-size="9">POST /followups · /generate-message</text>
  <text x="166" y="494" text-anchor="middle" fill="#fecaca" font-size="8">Schedule → Grok msg → WhatsApp send</text>

  <!-- COLUMN 2 -->
  <!-- Dashboard Controller -->
  <rect x="300" y="230" width="228" height="56" rx="8" fill="url(#nodeAmber)" filter="url(#shadow)"/>
  <text x="414" y="252" text-anchor="middle" fill="#fff" font-size="11" font-weight="700">📊 Dashboard Controller</text>
  <text x="414" y="268" text-anchor="middle" fill="#fde68a" font-size="9">GET /deals · /summary · /ranked</text>
  <text x="414" y="280" text-anchor="middle" fill="#fde68a" font-size="8">KPIs, ranked list, detail view</text>

  <!-- Auth Controller -->
  <rect x="300" y="302" width="228" height="56" rx="8" fill="url(#nodeAmber)" filter="url(#shadow)"/>
  <text x="414" y="322" text-anchor="middle" fill="#fff" font-size="11" font-weight="700">🔐 Auth Controller</text>
  <text x="414" y="338" text-anchor="middle" fill="#fde68a" font-size="9">POST /login · /signup · /verify-otp</text>
  <text x="414" y="350" text-anchor="middle" fill="#fde68a" font-size="8">bcrypt + JWT (30-day) + Google OAuth</text>

  <!-- Action Controller -->
  <rect x="300" y="374" width="228" height="56" rx="8" fill="url(#nodeTeal)" filter="url(#shadow)"/>
  <text x="414" y="394" text-anchor="middle" fill="#fff" font-size="11" font-weight="700">⚡ Action Controller</text>
  <text x="414" y="410" text-anchor="middle" fill="#cffafe" font-size="9">POST /actions/actioned · /escalate</text>
  <text x="414" y="422" text-anchor="middle" fill="#cffafe" font-size="8">Rep feedback → DB write</text>

  <!-- Notification Controller -->
  <rect x="300" y="446" width="228" height="56" rx="8" fill="url(#nodeRed)" filter="url(#shadow)"/>
  <text x="414" y="466" text-anchor="middle" fill="#fff" font-size="11" font-weight="700">🔔 Notification Controller</text>
  <text x="414" y="482" text-anchor="middle" fill="#fecaca" font-size="9">GET/POST /notifications</text>
  <text x="414" y="494" text-anchor="middle" fill="#fecaca" font-size="8">In-app alerts + WhatsApp OTP</text>

  <!-- COLUMN 3: Internal Services -->
  <!-- ML Engine -->
  <rect x="548" y="230" width="248" height="56" rx="8" fill="url(#nodeGreen)" filter="url(#shadow)"/>
  <text x="672" y="252" text-anchor="middle" fill="#fff" font-size="11" font-weight="700">⚙️ ML Engine</text>
  <text x="672" y="268" text-anchor="middle" fill="#a7f3d0" font-size="9">inference.py · data_fusion.py</text>
  <text x="672" y="280" text-anchor="middle" fill="#a7f3d0" font-size="8">Random Forest v1 · StandardScaler · Freq Encoding</text>

  <!-- AI Agents -->
  <rect x="548" y="302" width="248" height="56" rx="8" fill="url(#nodePurple)" filter="url(#shadow)"/>
  <text x="672" y="322" text-anchor="middle" fill="#fff" font-size="11" font-weight="700">🤖 AI Agents</text>
  <text x="672" y="338" text-anchor="middle" fill="#c4b5fd" font-size="9">recommender.py · prompts.py</text>
  <text x="672" y="350" text-anchor="middle" fill="#c4b5fd" font-size="8">Few-shot · Pydantic validation · retry(3x)</text>

  <!-- Services -->
  <rect x="548" y="374" width="248" height="56" rx="8" fill="url(#nodeTeal)" filter="url(#shadow)"/>
  <text x="672" y="394" text-anchor="middle" fill="#fff" font-size="11" font-weight="700">🛠️ Services Layer</text>
  <text x="672" y="410" text-anchor="middle" fill="#cffafe" font-size="9">deal_classifier.py · notification_service.py</text>
  <text x="672" y="422" text-anchor="middle" fill="#cffafe" font-size="8">followup_scheduler.py (APScheduler 60min)</text>

  <!-- Schemas + Security -->
  <rect x="548" y="446" width="248" height="56" rx="8" fill="#1e293b" stroke="#475569" stroke-width="1" stroke-dasharray="6,3"/>
  <text x="672" y="466" text-anchor="middle" fill="#94a3b8" font-size="11" font-weight="600">📋 Schemas + Security</text>
  <text x="672" y="482" text-anchor="middle" fill="#64748b" font-size="9">api_schemas.py · schema.py · config.py</text>
  <text x="672" y="494" text-anchor="middle" fill="#64748b" font-size="8">Pydantic v2 · bcrypt · python-jose · pydantic-settings</text>

  <!-- ═══ DATA LAYER BOX ═══ -->
  <rect x="840" y="194" width="330" height="210" rx="10" fill="url(#dataGrad)" stroke="#f59e0b" stroke-width="1.5" opacity="0.98" filter="url(#shadow)"/>
  <text x="860" y="218" fill="#fcd34d" font-size="12" font-weight="700">🗄️  DATA LAYER</text>

  <!-- PostgreSQL -->
  <rect x="860" y="228" width="290" height="62" rx="8" fill="url(#nodeAmber)" filter="url(#shadow)"/>
  <text x="1005" y="248" text-anchor="middle" fill="#fff" font-size="12" font-weight="700">🐘 PostgreSQL 16  (Port 5433)</text>
  <text x="1005" y="264" text-anchor="middle" fill="#fef3c7" font-size="9">users · otp_codes · zoho_deals</text>
  <text x="1005" y="278" text-anchor="middle" fill="#fef3c7" font-size="9">ml_predictions · llm_recommendations</text>
  <text x="1005" y="290" text-anchor="middle" fill="#fef3c7" font-size="8">deal_followups · followup_logs · notifications</text>

  <!-- ML Artifacts -->
  <rect x="860" y="304" width="290" height="62" rx="8" fill="url(#nodeGreen)" filter="url(#shadow)"/>
  <text x="1005" y="324" text-anchor="middle" fill="#fff" font-size="12" font-weight="700">📦 ML Artifacts  (/weights + /artifacts)</text>
  <text x="1005" y="340" text-anchor="middle" fill="#a7f3d0" font-size="9">random_forest_v1.pkl · standard_scaler.pkl</text>
  <text x="1005" y="356" text-anchor="middle" fill="#a7f3d0" font-size="9">feature_columns.json (freq maps + stage mapping)</text>

  <!-- pgAdmin -->
  <rect x="860" y="380" width="290" height="18" rx="4" fill="#0f172a" stroke="#334155" stroke-width="1"/>
  <text x="1005" y="393" text-anchor="middle" fill="#64748b" font-size="9">🖥️ pgAdmin 4 — Port 5050 (docker-compose)</text>

  <!-- ═══ FRONTEND BOX ═══ -->
  <rect x="840" y="422" width="330" height="122" rx="10" fill="url(#feGrad)" stroke="#8b5cf6" stroke-width="1.5" opacity="0.98" filter="url(#shadow)"/>
  <text x="860" y="446" fill="#c4b5fd" font-size="12" font-weight="700">⚛️  REACT FRONTEND  —  Port 5173 (Vite)</text>

  <rect x="860" y="458" width="290" height="76" rx="8" fill="url(#nodePurple)" filter="url(#shadow)"/>
  <text x="1005" y="478" text-anchor="middle" fill="#fff" font-size="12" font-weight="700">React 18 + TypeScript</text>
  <text x="1005" y="494" text-anchor="middle" fill="#ddd6fe" font-size="9">TailwindCSS · Recharts · TanStack Query · React Router</text>
  <text x="1005" y="508" text-anchor="middle" fill="#ddd6fe" font-size="9">Auth · Home · Dashboard · Integrations · Settings</text>
  <text x="1005" y="522" text-anchor="middle" fill="#ddd6fe" font-size="8">Axios HTTP · CORS (localhost:5173 ↔ 8000)</text>

  <!-- ═══ ARROWS ═══ -->
  <!-- Zoho → Ingestion Controller -->
  <line x1="144" y1="154" x2="144" y2="230" stroke="#60a5fa" stroke-width="2" marker-end="url(#arrowBlue)"/>
  <text x="152" y="197" fill="#93c5fd" font-size="9">REST + OAuth</text>

  <!-- Groq → AI Agents -->
  <path d="M 362 154 L 362 188 Q 362 196 370 196 L 660 196 Q 668 196 668 210 L 668 230" stroke="#34d399" stroke-width="2" fill="none" marker-end="url(#arrowGreen)"/>
  <text x="490" y="194" fill="#6ee7b7" font-size="9">LLM API (json_object mode)</text>

  <!-- Grok → Follow-up (message gen) -->
  <path d="M 579 154 L 579 186 Q 579 194 571 194 L 90 194 Q 80 194 80 200 L 80 230" stroke="#22d3ee" stroke-width="1.5" fill="none" marker-end="url(#arrowTeal)" stroke-dasharray="6,3"/>
  <text x="310" y="191" fill="#22d3ee" font-size="8">WhatsApp msg gen</text>

  <!-- Google → Auth Controller -->
  <path d="M 784 154 L 784 182 Q 784 192 774 192 L 440 192 Q 430 192 430 198 L 430 210 Q 430 220 420 220 L 420 230" stroke="#fbbf24" stroke-width="1.5" fill="none" marker-end="url(#arrowAmber)"/>

  <!-- WhatsApp → Notification -->
  <path d="M 1017 154 L 1017 180 Q 1017 190 1007 190 L 560 190 Q 550 190 450 190 L 440 192 Q 430 192 430 200 L 430 446" stroke="#f87171" stroke-width="1.5" fill="none" marker-end="url(#arrowRed)" stroke-dasharray="5,3"/>
  <text x="720" y="185" fill="#fca5a5" font-size="8">OTP + Alerts</text>

  <!-- Ingestion → DB (upsert deals) -->
  <line x1="280" y1="256" x2="860" y2="256" stroke="#60a5fa" stroke-width="2" marker-end="url(#arrowBlue)"/>
  <text x="560" y="249" fill="#93c5fd" font-size="9">Upsert zoho_deals (idempotent)</text>

  <!-- DB → ML Controller -->
  <path d="M 860 270 L 310 270 Q 300 270 300 278 L 300 302" stroke="#34d399" stroke-width="2" fill="none" marker-end="url(#arrowGreen)"/>
  <text x="570" y="284" fill="#6ee7b7" font-size="9">Read deals</text>

  <!-- ML Controller → ML Engine -->
  <line x1="280" y1="328" x2="548" y2="328" stroke="#34d399" stroke-width="2" marker-end="url(#arrowGreen)"/>
  <text x="400" y="321" fill="#6ee7b7" font-size="9">Preprocess + Predict</text>

  <!-- ML Engine → DB (store predictions) -->
  <line x1="796" y1="328" x2="860" y2="328" stroke="#fbbf24" stroke-width="1.5" marker-end="url(#arrowAmber)"/>

  <!-- Rec Controller → AI Agents -->
  <line x1="280" y1="400" x2="548" y2="370" stroke="#a78bfa" stroke-width="2" marker-end="url(#arrowPurple)"/>
  <text x="400" y="385" fill="#c4b5fd" font-size="9">fuse_deal_payload()</text>

  <!-- Rec Controller → DB (upsert recommendations) -->
  <path d="M 280 402 L 288 402 Q 296 402 296 412 L 296 480 Q 296 490 306 490 L 840 350 Q 850 344 860 344" stroke="#a78bfa" stroke-width="1.5" fill="none" marker-end="url(#arrowPurple)" stroke-dasharray="5,3"/>

  <!-- Frontend → Backend -->
  <line x1="860" y1="492" x2="816" y2="420" stroke="#a78bfa" stroke-width="2.5" marker-end="url(#arrowPurple)"/>
  <text x="828" y="462" fill="#c4b5fd" font-size="9">Axios HTTP</text>

  <!-- ═══ PIPELINE FLOW BANNER ═══ -->
  <rect x="30" y="560" width="1140" height="270" rx="12" fill="#060d1a" stroke="#1e293b" stroke-width="1"/>
  <text x="600" y="590" text-anchor="middle" fill="#f8fafc" font-size="16" font-weight="700">🔄  End-to-End Pipeline  —  "Sync Now" Button Flow</text>

  <!-- Steps -->
  <rect x="52" y="608" width="152" height="60" rx="8" fill="url(#nodeBlue)" filter="url(#shadow)"/>
  <text x="128" y="630" text-anchor="middle" fill="#fff" font-size="12" font-weight="700">1️⃣  INGEST</text>
  <text x="128" y="648" text-anchor="middle" fill="#bfdbfe" font-size="9">Zoho OAuth pull</text>
  <text x="128" y="660" text-anchor="middle" fill="#bfdbfe" font-size="8">+ CSV / XLSX upload</text>

  <line x1="204" y1="638" x2="234" y2="638" stroke="#60a5fa" stroke-width="2.5" marker-end="url(#arrowBlue)"/>

  <rect x="236" y="608" width="152" height="60" rx="8" fill="url(#nodeAmber)" filter="url(#shadow)"/>
  <text x="312" y="630" text-anchor="middle" fill="#fff" font-size="12" font-weight="700">2️⃣  STORE</text>
  <text x="312" y="648" text-anchor="middle" fill="#fef3c7" font-size="9">PostgreSQL Upsert</text>
  <text x="312" y="660" text-anchor="middle" fill="#fef3c7" font-size="8">zoho_deals table</text>

  <line x1="388" y1="638" x2="418" y2="638" stroke="#fbbf24" stroke-width="2.5" marker-end="url(#arrowAmber)"/>

  <rect x="420" y="608" width="165" height="60" rx="8" fill="url(#nodeGreen)" filter="url(#shadow)"/>
  <text x="502" y="630" text-anchor="middle" fill="#fff" font-size="12" font-weight="700">3️⃣  PREDICT</text>
  <text x="502" y="648" text-anchor="middle" fill="#a7f3d0" font-size="9">Random Forest</text>
  <text x="502" y="660" text-anchor="middle" fill="#a7f3d0" font-size="8">base_probability %</text>

  <line x1="585" y1="638" x2="615" y2="638" stroke="#34d399" stroke-width="2.5" marker-end="url(#arrowGreen)"/>

  <rect x="617" y="608" width="165" height="60" rx="8" fill="url(#nodePurple)" filter="url(#shadow)"/>
  <text x="700" y="630" text-anchor="middle" fill="#fff" font-size="12" font-weight="700">4️⃣  RECOMMEND</text>
  <text x="700" y="648" text-anchor="middle" fill="#c4b5fd" font-size="9">Groq LLM Agent</text>
  <text x="700" y="660" text-anchor="middle" fill="#c4b5fd" font-size="8">Arabic + English output</text>

  <line x1="782" y1="638" x2="812" y2="638" stroke="#a78bfa" stroke-width="2.5" marker-end="url(#arrowPurple)"/>

  <rect x="814" y="608" width="152" height="60" rx="8" fill="url(#nodeRed)" filter="url(#shadow)"/>
  <text x="890" y="630" text-anchor="middle" fill="#fff" font-size="12" font-weight="700">5️⃣  NOTIFY</text>
  <text x="890" y="648" text-anchor="middle" fill="#fecaca" font-size="9">WhatsApp Alert</text>
  <text x="890" y="660" text-anchor="middle" fill="#fecaca" font-size="8">Urgent deals auto-trigger</text>

  <line x1="966" y1="638" x2="996" y2="638" stroke="#f87171" stroke-width="2.5" marker-end="url(#arrowRed)"/>

  <rect x="998" y="608" width="142" height="60" rx="8" fill="#1e293b" stroke="#8b5cf6" stroke-width="1.5"/>
  <text x="1069" y="630" text-anchor="middle" fill="#fff" font-size="12" font-weight="700">6️⃣  ACT</text>
  <text x="1069" y="648" text-anchor="middle" fill="#c4b5fd" font-size="9">Sales Rep Dashboard</text>
  <text x="1069" y="660" text-anchor="middle" fill="#c4b5fd" font-size="8">Follow-up → Mark done</text>

  <!-- Key Metrics Row -->
  <rect x="52" y="690" width="1096" height="52" rx="8" fill="#0f172a" stroke="#1e293b" stroke-width="1"/>

  <text x="148" y="712" text-anchor="middle" fill="#60a5fa" font-size="12" font-weight="700">📊 Random Forest</text>
  <text x="148" y="730" text-anchor="middle" fill="#64748b" font-size="9">93.6% Accuracy (MVP)</text>

  <text x="330" y="712" text-anchor="middle" fill="#34d399" font-size="12" font-weight="700">🧠 Llama 3.3 70B</text>
  <text x="330" y="730" text-anchor="middle" fill="#64748b" font-size="9">via Groq · JSON Mode · AR + EN</text>

  <text x="510" y="712" text-anchor="middle" fill="#fbbf24" font-size="12" font-weight="700">🐘 PostgreSQL 16</text>
  <text x="510" y="730" text-anchor="middle" fill="#64748b" font-size="9">8 Tables · JSONB Custom Fields</text>

  <text x="690" y="712" text-anchor="middle" fill="#a78bfa" font-size="12" font-weight="700">⚛️ React 18 + TypeScript</text>
  <text x="690" y="730" text-anchor="middle" fill="#64748b" font-size="9">Vite · TailwindCSS · TanStack Query</text>

  <text x="870" y="712" text-anchor="middle" fill="#f87171" font-size="12" font-weight="700">📱 WhatsApp Alerts</text>
  <text x="870" y="730" text-anchor="middle" fill="#64748b" font-size="9">pywhatkit + OTP signup flow</text>

  <text x="1060" y="712" text-anchor="middle" fill="#22d3ee" font-size="12" font-weight="700">🌍 AR / EN Bilingual</text>
  <text x="1060" y="730" text-anchor="middle" fill="#64748b" font-size="9">RTL Arabic AI Recommendations</text>

  <!-- APScheduler note -->
  <text x="600" y="760" text-anchor="middle" fill="#475569" font-size="10" font-style="italic">🕐  APScheduler background job: checks deferred follow-ups every 60 minutes on API startup</text>
</svg>
