<svg xmlns="http://www.w3.org/2000/svg" viewBox="0 0 1200 820" font-family="Segoe UI, Arial, sans-serif">
  <defs>
    <linearGradient id="bgGrad" x1="0%" y1="0%" x2="100%" y2="100%">
      <stop offset="0%" style="stop-color:#0f172a"/>
      <stop offset="100%" style="stop-color:#1e293b"/>
    </linearGradient>
    <linearGradient id="extGrad" x1="0%" y1="0%" x2="0%" y2="100%">
      <stop offset="0%" style="stop-color:#1e3a5f"/>
      <stop offset="100%" style="stop-color:#0f2440"/>
    </linearGradient>
    <linearGradient id="backGrad" x1="0%" y1="0%" x2="0%" y2="100%">
      <stop offset="0%" style="stop-color:#064e3b"/>
      <stop offset="100%" style="stop-color:#022c22"/>
    </linearGradient>
    <linearGradient id="dataGrad" x1="0%" y1="0%" x2="0%" y2="100%">
      <stop offset="0%" style="stop-color:#78350f"/>
      <stop offset="100%" style="stop-color:#451a03"/>
    </linearGradient>
    <linearGradient id="feGrad" x1="0%" y1="0%" x2="0%" y2="100%">
      <stop offset="0%" style="stop-color:#4c1d95"/>
      <stop offset="100%" style="stop-color:#2e1065"/>
    </linearGradient>
    <linearGradient id="nodeBlue" x1="0%" y1="0%" x2="100%" y2="100%">
      <stop offset="0%" style="stop-color:#2563eb"/>
      <stop offset="100%" style="stop-color:#1d4ed8"/>
    </linearGradient>
    <linearGradient id="nodeGreen" x1="0%" y1="0%" x2="100%" y2="100%">
      <stop offset="0%" style="stop-color:#059669"/>
      <stop offset="100%" style="stop-color:#047857"/>
    </linearGradient>
    <linearGradient id="nodeAmber" x1="0%" y1="0%" x2="100%" y2="100%">
      <stop offset="0%" style="stop-color:#d97706"/>
      <stop offset="100%" style="stop-color:#b45309"/>
    </linearGradient>
    <linearGradient id="nodePurple" x1="0%" y1="0%" x2="100%" y2="100%">
      <stop offset="0%" style="stop-color:#7c3aed"/>
      <stop offset="100%" style="stop-color:#6d28d9"/>
    </linearGradient>
    <linearGradient id="nodeRed" x1="0%" y1="0%" x2="100%" y2="100%">
      <stop offset="0%" style="stop-color:#dc2626"/>
      <stop offset="100%" style="stop-color:#b91c1c"/>
    </linearGradient>
    <filter id="shadow">
      <feDropShadow dx="0" dy="2" stdDeviation="4" flood-color="#000" flood-opacity="0.3"/>
    </filter>
    <marker id="arrowBlue" markerWidth="10" markerHeight="7" refX="10" refY="3.5" orient="auto">
      <polygon points="0 0, 10 3.5, 0 7" fill="#60a5fa"/>
    </marker>
    <marker id="arrowGreen" markerWidth="10" markerHeight="7" refX="10" refY="3.5" orient="auto">
      <polygon points="0 0, 10 3.5, 0 7" fill="#34d399"/>
    </marker>
    <marker id="arrowAmber" markerWidth="10" markerHeight="7" refX="10" refY="3.5" orient="auto">
      <polygon points="0 0, 10 3.5, 0 7" fill="#fbbf24"/>
    </marker>
    <marker id="arrowPurple" markerWidth="10" markerHeight="7" refX="10" refY="3.5" orient="auto">
      <polygon points="0 0, 10 3.5, 0 7" fill="#a78bfa"/>
    </marker>
    <marker id="arrowRed" markerWidth="10" markerHeight="7" refX="10" refY="3.5" orient="auto">
      <polygon points="0 0, 10 3.5, 0 7" fill="#f87171"/>
    </marker>
  </defs>

  <!-- Background -->
  <rect width="1200" height="820" fill="url(#bgGrad)" rx="16"/>

  <!-- Title -->
  <text x="600" y="42" text-anchor="middle" fill="#f8fafc" font-size="22" font-weight="700">AI CRM Brain — System Architecture &amp; Data Flow</text>

  <!-- ═══ EXTERNAL SERVICES BOX ═══ -->
  <rect x="30" y="60" width="1140" height="100" rx="12" fill="url(#extGrad)" stroke="#3b82f6" stroke-width="1.5" opacity="0.9" filter="url(#shadow)"/>
  <text x="50" y="85" fill="#93c5fd" font-size="13" font-weight="600">☁️  EXTERNAL SERVICES</text>
  <!-- Zoho -->
  <rect x="50" y="96" width="175" height="48" rx="8" fill="url(#nodeBlue)" filter="url(#shadow)"/>
  <text x="137" y="124" text-anchor="middle" fill="#fff" font-size="12" font-weight="600">🔗 Zoho CRM API v3</text>
  <!-- Groq -->
  <rect x="255" y="96" width="200" height="48" rx="8" fill="url(#nodeGreen)" filter="url(#shadow)"/>
  <text x="355" y="124" text-anchor="middle" fill="#fff" font-size="12" font-weight="600">🧠 Groq API (Llama 3.3 70B)</text>
  <!-- Google -->
  <rect x="485" y="96" width="175" height="48" rx="8" fill="url(#nodeAmber)" filter="url(#shadow)"/>
  <text x="572" y="124" text-anchor="middle" fill="#fff" font-size="12" font-weight="600">🔐 Google OAuth 2.0</text>
  <!-- WhatsApp -->
  <rect x="690" y="96" width="200" height="48" rx="8" fill="url(#nodeGreen)" filter="url(#shadow)"/>
  <text x="790" y="124" text-anchor="middle" fill="#fff" font-size="12" font-weight="600">📱 WhatsApp API (Twilio)</text>
  <!-- CSV -->
  <rect x="920" y="96" width="175" height="48" rx="8" fill="url(#nodePurple)" filter="url(#shadow)"/>
  <text x="1007" y="124" text-anchor="middle" fill="#fff" font-size="12" font-weight="600">📄 CSV / XLSX Upload</text>

  <!-- ═══ FASTAPI BACKEND BOX ═══ -->
  <rect x="30" y="185" width="780" height="345" rx="12" fill="url(#backGrad)" stroke="#10b981" stroke-width="1.5" opacity="0.9" filter="url(#shadow)"/>
  <text x="50" y="210" fill="#6ee7b7" font-size="13" font-weight="600">⚙️  FASTAPI BACKEND (Port 8000)</text>

  <!-- Ingestion Controller -->
  <rect x="50" y="225" width="220" height="52" rx="8" fill="url(#nodeBlue)" filter="url(#shadow)"/>
  <text x="160" y="247" text-anchor="middle" fill="#fff" font-size="11" font-weight="600">📥 Ingestion Controller</text>
  <text x="160" y="264" text-anchor="middle" fill="#bfdbfe" font-size="9">OAuth Refresh → Fetch → Upsert</text>

  <!-- ML Controller -->
  <rect x="50" y="295" width="220" height="52" rx="8" fill="url(#nodeGreen)" filter="url(#shadow)"/>
  <text x="160" y="317" text-anchor="middle" fill="#fff" font-size="11" font-weight="600">🤖 ML Controller</text>
  <text x="160" y="334" text-anchor="middle" fill="#a7f3d0" font-size="9">Preprocess → Random Forest → Predict</text>

  <!-- Recommendation Controller -->
  <rect x="50" y="365" width="220" height="52" rx="8" fill="url(#nodePurple)" filter="url(#shadow)"/>
  <text x="160" y="387" text-anchor="middle" fill="#fff" font-size="11" font-weight="600">🧠 Recommendation Controller</text>
  <text x="160" y="404" text-anchor="middle" fill="#c4b5fd" font-size="9">Data Fusion → LLM → Validate → Store</text>

  <!-- Dashboard Controller -->
  <rect x="310" y="225" width="220" height="52" rx="8" fill="url(#nodeAmber)" filter="url(#shadow)"/>
  <text x="420" y="247" text-anchor="middle" fill="#fff" font-size="11" font-weight="600">📊 Dashboard Controller</text>
  <text x="420" y="264" text-anchor="middle" fill="#fde68a" font-size="9">KPIs, Rankings, Deal Detail</text>

  <!-- Auth Controller -->
  <rect x="310" y="295" width="220" height="52" rx="8" fill="url(#nodeAmber)" filter="url(#shadow)"/>
  <text x="420" y="317" text-anchor="middle" fill="#fff" font-size="11" font-weight="600">🔐 Auth Controller</text>
  <text x="420" y="334" text-anchor="middle" fill="#fde68a" font-size="9">JWT, OTP, Google SSO</text>

  <!-- Action Controller -->
  <rect x="310" y="365" width="220" height="52" rx="8" fill="url(#nodeRed)" filter="url(#shadow)"/>
  <text x="420" y="387" text-anchor="middle" fill="#fff" font-size="11" font-weight="600">⚡ Action Controller</text>
  <text x="420" y="404" text-anchor="middle" fill="#fecaca" font-size="9">Actioned, Escalate, Full Sync</text>

  <!-- Notification Service -->
  <rect x="570" y="225" width="220" height="52" rx="8" fill="url(#nodeRed)" filter="url(#shadow)"/>
  <text x="680" y="247" text-anchor="middle" fill="#fff" font-size="11" font-weight="600">🔔 Notification Service</text>
  <text x="680" y="264" text-anchor="middle" fill="#fecaca" font-size="9">WhatsApp OTP + Deal Alerts</text>

  <!-- ML Engine (inside backend) -->
  <rect x="570" y="295" width="220" height="52" rx="8" fill="url(#nodeGreen)" filter="url(#shadow)"/>
  <text x="680" y="317" text-anchor="middle" fill="#fff" font-size="11" font-weight="600">⚙️ ML Engine</text>
  <text x="680" y="334" text-anchor="middle" fill="#a7f3d0" font-size="9">inference.py + data_fusion.py</text>

  <!-- AI Agents (inside backend) -->
  <rect x="570" y="365" width="220" height="52" rx="8" fill="url(#nodePurple)" filter="url(#shadow)"/>
  <text x="680" y="387" text-anchor="middle" fill="#fff" font-size="11" font-weight="600">🤖 AI Agents</text>
  <text x="680" y="404" text-anchor="middle" fill="#c4b5fd" font-size="9">recommender.py + prompts.py</text>

  <!-- Pydantic Schemas -->
  <rect x="200" y="440" width="400" height="40" rx="8" fill="#1e293b" stroke="#64748b" stroke-width="1" stroke-dasharray="6,3"/>
  <text x="400" y="465" text-anchor="middle" fill="#94a3b8" font-size="11" font-weight="500">📋 Pydantic Schemas (api_schemas.py) — Validates all Request/Response data</text>

  <!-- Security Utils -->
  <rect x="200" y="490" width="400" height="36" rx="8" fill="#1e293b" stroke="#64748b" stroke-width="1" stroke-dasharray="6,3"/>
  <text x="400" y="513" text-anchor="middle" fill="#94a3b8" font-size="11" font-weight="500">🔐 Security Utils — bcrypt hashing, JWT create/verify</text>

  <!-- ═══ DATA LAYER BOX ═══ -->
  <rect x="840" y="185" width="330" height="200" rx="12" fill="url(#dataGrad)" stroke="#f59e0b" stroke-width="1.5" opacity="0.9" filter="url(#shadow)"/>
  <text x="860" y="210" fill="#fcd34d" font-size="13" font-weight="600">🗄️  DATA LAYER</text>

  <!-- PostgreSQL -->
  <rect x="860" y="225" width="290" height="55" rx="8" fill="url(#nodeAmber)" filter="url(#shadow)"/>
  <text x="1005" y="249" text-anchor="middle" fill="#fff" font-size="12" font-weight="700">🐘 PostgreSQL 16 (Port 5433)</text>
  <text x="1005" y="268" text-anchor="middle" fill="#fef3c7" font-size="9">Users · ZohoDeals · MLPredictions · LLMRecommendations</text>

  <!-- ML Artifacts -->
  <rect x="860" y="300" width="290" height="55" rx="8" fill="url(#nodeAmber)" filter="url(#shadow)"/>
  <text x="1005" y="324" text-anchor="middle" fill="#fff" font-size="12" font-weight="700">📦 ML Artifacts</text>
  <text x="1005" y="343" text-anchor="middle" fill="#fef3c7" font-size="9">random_forest_v1.pkl · StandardScaler · Encoders</text>

  <!-- ═══ FRONTEND BOX ═══ -->
  <rect x="840" y="410" width="330" height="120" rx="12" fill="url(#feGrad)" stroke="#8b5cf6" stroke-width="1.5" opacity="0.9" filter="url(#shadow)"/>
  <text x="860" y="435" fill="#c4b5fd" font-size="13" font-weight="600">⚛️  REACT FRONTEND (Port 5173)</text>

  <rect x="860" y="448" width="290" height="65" rx="8" fill="url(#nodePurple)" filter="url(#shadow)"/>
  <text x="1005" y="472" text-anchor="middle" fill="#fff" font-size="12" font-weight="700">🖥️ React 18 + TypeScript</text>
  <text x="1005" y="491" text-anchor="middle" fill="#ddd6fe" font-size="9">TailwindCSS · Recharts · TanStack Query · React Router</text>
  <text x="1005" y="505" text-anchor="middle" fill="#ddd6fe" font-size="9">Auth · Home · Dashboard · Settings · Integrations</text>

  <!-- ═══ ARROWS ═══ -->
  <!-- Zoho → Ingestion -->
  <line x1="137" y1="144" x2="137" y2="225" stroke="#60a5fa" stroke-width="2" marker-end="url(#arrowBlue)"/>
  <text x="145" y="190" fill="#93c5fd" font-size="9">REST + OAuth</text>

  <!-- CSV → Ingestion -->
  <path d="M 1007 144 L 1007 175 Q 1007 185 997 185 L 270 185 Q 260 185 260 195 L 260 225" stroke="#a78bfa" stroke-width="1.5" fill="none" marker-end="url(#arrowPurple)" stroke-dasharray="5,3"/>

  <!-- Ingestion → DB -->
  <line x1="270" y1="251" x2="860" y2="251" stroke="#60a5fa" stroke-width="2" marker-end="url(#arrowBlue)"/>
  <text x="560" y="244" fill="#93c5fd" font-size="9">Upsert Deals</text>

  <!-- DB → ML Controller -->
  <path d="M 860 265 L 310 265 Q 300 265 300 275 L 300 295" stroke="#34d399" stroke-width="2" fill="none" marker-end="url(#arrowGreen)"/>
  <text x="580" y="280" fill="#6ee7b7" font-size="9">Read Deals</text>

  <!-- ML Controller → ML Engine -->
  <line x1="270" y1="321" x2="570" y2="321" stroke="#34d399" stroke-width="2" marker-end="url(#arrowGreen)"/>
  <text x="400" y="315" fill="#6ee7b7" font-size="9">Preprocess + Predict</text>

  <!-- ML Engine → ML Artifacts -->
  <line x1="790" y1="321" x2="860" y2="327" stroke="#fbbf24" stroke-width="2" marker-end="url(#arrowAmber)"/>

  <!-- ML Controller → DB (store predictions) -->
  <path d="M 270 340 L 280 340 Q 290 340 290 350 L 290 380 Q 290 390 300 390 L 830 390 Q 840 390 850 380 L 850 280 Q 860 270 870 270" stroke="#34d399" stroke-width="1.5" fill="none" marker-end="url(#arrowGreen)" stroke-dasharray="5,3"/>

  <!-- DB → Rec Controller -->
  <path d="M 860 275 L 310 275 Q 290 275 290 290 L 290 355 Q 290 365 280 365 L 270 370" stroke="#a78bfa" stroke-width="2" fill="none" marker-end="url(#arrowPurple)"/>

  <!-- Rec Controller → AI Agents -->
  <line x1="270" y1="391" x2="570" y2="391" stroke="#a78bfa" stroke-width="2" marker-end="url(#arrowPurple)"/>
  <text x="400" y="385" fill="#c4b5fd" font-size="9">Generate Recommendation</text>

  <!-- AI Agents → Groq -->
  <path d="M 680 365 L 680 180 Q 680 170 670 170 L 380 170 Q 370 170 360 160 L 355 144" stroke="#34d399" stroke-width="2" fill="none" marker-end="url(#arrowGreen)"/>
  <text x="690" y="178" fill="#6ee7b7" font-size="9">LLM API Call</text>

  <!-- Rec Controller → Notification (urgent deals) -->
  <path d="M 260 365 L 260 260 Q 260 250 270 250 L 560 250 Q 570 250 580 250" stroke="#f87171" stroke-width="1.5" fill="none" marker-end="url(#arrowRed)" stroke-dasharray="5,3"/>
  <text x="380" y="245" fill="#fca5a5" font-size="8">Urgent Deals</text>

  <!-- Notification → WhatsApp API -->
  <path d="M 790 248 L 800 175 Q 800 165 790 160 L 790 144" stroke="#f87171" stroke-width="1.5" fill="none" marker-end="url(#arrowRed)"/>
  <text x="810" y="175" fill="#fca5a5" font-size="8">Alert</text>

  <!-- Auth Controller → Google OAuth -->
  <path d="M 420 295 L 420 175 Q 420 165 430 165 L 555 165 Q 565 165 572 155 L 572 144" stroke="#fbbf24" stroke-width="1.5" fill="none" marker-end="url(#arrowAmber)"/>

  <!-- Frontend → Backend -->
  <line x1="860" y1="480" x2="810" y2="390" stroke="#a78bfa" stroke-width="2" marker-end="url(#arrowPurple)"/>
  <text x="845" y="440" fill="#c4b5fd" font-size="9">Axios HTTP</text>

  <!-- Frontend → Dashboard -->
  <path d="M 860 460 L 540 260 Q 530 255 530 245 L 530 251" stroke="#a78bfa" stroke-width="1.5" fill="none" marker-end="url(#arrowPurple)" stroke-dasharray="5,3"/>

  <!-- ═══ LEGEND ═══ -->
  <rect x="30" y="555" width="1140" height="240" rx="12" fill="#0f172a" stroke="#334155" stroke-width="1"/>
  <text x="600" y="585" text-anchor="middle" fill="#f8fafc" font-size="16" font-weight="700">🔄 End-to-End Data Flow Pipeline</text>

  <!-- Flow Steps -->
  <rect x="55" y="605" width="150" height="55" rx="8" fill="url(#nodeBlue)" filter="url(#shadow)"/>
  <text x="130" y="628" text-anchor="middle" fill="#fff" font-size="11" font-weight="600">1️⃣ INGEST</text>
  <text x="130" y="647" text-anchor="middle" fill="#bfdbfe" font-size="9">Zoho API / CSV Upload</text>

  <line x1="205" y1="632" x2="243" y2="632" stroke="#60a5fa" stroke-width="2" marker-end="url(#arrowBlue)"/>

  <rect x="245" y="605" width="150" height="55" rx="8" fill="url(#nodeAmber)" filter="url(#shadow)"/>
  <text x="320" y="628" text-anchor="middle" fill="#fff" font-size="11" font-weight="600">2️⃣ STORE</text>
  <text x="320" y="647" text-anchor="middle" fill="#fef3c7" font-size="9">PostgreSQL (Upsert)</text>

  <line x1="395" y1="632" x2="433" y2="632" stroke="#fbbf24" stroke-width="2" marker-end="url(#arrowAmber)"/>

  <rect x="435" y="605" width="150" height="55" rx="8" fill="url(#nodeGreen)" filter="url(#shadow)"/>
  <text x="510" y="628" text-anchor="middle" fill="#fff" font-size="11" font-weight="600">3️⃣ PREDICT</text>
  <text x="510" y="647" text-anchor="middle" fill="#a7f3d0" font-size="9">Random Forest (93.6%)</text>

  <line x1="585" y1="632" x2="623" y2="632" stroke="#34d399" stroke-width="2" marker-end="url(#arrowGreen)"/>

  <rect x="625" y="605" width="160" height="55" rx="8" fill="url(#nodePurple)" filter="url(#shadow)"/>
  <text x="705" y="628" text-anchor="middle" fill="#fff" font-size="11" font-weight="600">4️⃣ RECOMMEND</text>
  <text x="705" y="647" text-anchor="middle" fill="#c4b5fd" font-size="9">LLM Agent (AR/EN)</text>

  <line x1="785" y1="632" x2="823" y2="632" stroke="#a78bfa" stroke-width="2" marker-end="url(#arrowPurple)"/>

  <rect x="825" y="605" width="150" height="55" rx="8" fill="url(#nodeRed)" filter="url(#shadow)"/>
  <text x="900" y="628" text-anchor="middle" fill="#fff" font-size="11" font-weight="600">5️⃣ NOTIFY</text>
  <text x="900" y="647" text-anchor="middle" fill="#fecaca" font-size="9">WhatsApp + Dashboard</text>

  <line x1="990" y1="632" x2="1028" y2="632" stroke="#f87171" stroke-width="2" marker-end="url(#arrowRed)"/>

  <rect x="1030" y="605" width="120" height="55" rx="8" fill="#1e293b" stroke="#8b5cf6" stroke-width="1.5"/>
  <text x="1090" y="628" text-anchor="middle" fill="#fff" font-size="11" font-weight="600">6️⃣ ACT</text>
  <text x="1090" y="647" text-anchor="middle" fill="#c4b5fd" font-size="9">Sales Rep Action</text>

  <!-- Legend items -->
  <rect x="55" y="685" width="16" height="16" rx="4" fill="url(#nodeBlue)"/>
  <text x="80" y="698" fill="#94a3b8" font-size="11">Ingestion Layer</text>

  <rect x="220" y="685" width="16" height="16" rx="4" fill="url(#nodeGreen)"/>
  <text x="245" y="698" fill="#94a3b8" font-size="11">ML / AI Layer</text>

  <rect x="380" y="685" width="16" height="16" rx="4" fill="url(#nodeAmber)"/>
  <text x="405" y="698" fill="#94a3b8" font-size="11">Data / Dashboard</text>

  <rect x="560" y="685" width="16" height="16" rx="4" fill="url(#nodePurple)"/>
  <text x="585" y="698" fill="#94a3b8" font-size="11">LLM / Frontend</text>

  <rect x="730" y="685" width="16" height="16" rx="4" fill="url(#nodeRed)"/>
  <text x="755" y="698" fill="#94a3b8" font-size="11">Alerts / Actions</text>

  <!-- Key Metrics -->
  <rect x="55" y="720" width="1100" height="60" rx="8" fill="#1e293b" stroke="#334155" stroke-width="1"/>
  <text x="130" y="745" text-anchor="middle" fill="#60a5fa" font-size="12" font-weight="600">📊 93.6%</text>
  <text x="130" y="763" text-anchor="middle" fill="#64748b" font-size="9">ML Accuracy</text>

  <text x="320" y="745" text-anchor="middle" fill="#34d399" font-size="12" font-weight="600">🧠 Llama 3.3 70B</text>
  <text x="320" y="763" text-anchor="middle" fill="#64748b" font-size="9">LLM Model (via Groq)</text>

  <text x="510" y="745" text-anchor="middle" fill="#fbbf24" font-size="12" font-weight="600">🐘 PostgreSQL 16</text>
  <text x="510" y="763" text-anchor="middle" fill="#64748b" font-size="9">+ JSONB Custom Fields</text>

  <text x="700" y="745" text-anchor="middle" fill="#a78bfa" font-size="12" font-weight="600">⚛️ React 18 + TS</text>
  <text x="700" y="763" text-anchor="middle" fill="#64748b" font-size="9">Vite + TailwindCSS</text>

  <text x="890" y="745" text-anchor="middle" fill="#f87171" font-size="12" font-weight="600">📱 WhatsApp Alerts</text>
  <text x="890" y="763" text-anchor="middle" fill="#64748b" font-size="9">Risk + Hot Lead Triggers</text>

  <text x="1070" y="745" text-anchor="middle" fill="#38bdf8" font-size="12" font-weight="600">🌍 AR / EN</text>
  <text x="1070" y="763" text-anchor="middle" fill="#64748b" font-size="9">Bilingual AI Output</text>
</svg>
